<svg width="120" height="48" viewBox="0 0 120 48" fill="none" xmlns="http://www.w3.org/2000/svg">
<rect width="120" height="48" rx="8" fill="black"/>
<path d="M26.3239 21.7102C26.2784 21.2519 26.0833 20.8958 25.7386 20.642C25.3939 20.3883 24.9261 20.2614 24.3352 20.2614C23.9337 20.2614 23.5947 20.3182 23.3182 20.4318C23.0417 20.5417 22.8295 20.6951 22.6818 20.892C22.5379 21.089 22.4659 21.3125 22.4659 21.5625C22.4583 21.7708 22.5019 21.9527 22.5966 22.108C22.6951 22.2633 22.8295 22.3977 23 22.5114C23.1705 22.6212 23.3674 22.7178 23.5909 22.8011C23.8144 22.8807 24.053 22.9489 24.3068 23.0057L25.3523 23.2557C25.8598 23.3693 26.3258 23.5208 26.75 23.7102C27.1742 23.8996 27.5417 24.1326 27.8523 24.4091C28.1629 24.6856 28.4034 25.0114 28.5739 25.3864C28.7481 25.7614 28.8371 26.1913 28.8409 26.6761C28.8371 27.3883 28.6553 28.0057 28.2955 28.5284C27.9394 29.0473 27.4242 29.4508 26.75 29.7386C26.0795 30.0227 25.2708 30.1648 24.3239 30.1648C23.3845 30.1648 22.5663 30.0208 21.8693 29.733C21.1761 29.4451 20.6345 29.0189 20.2443 28.4545C19.858 27.8864 19.6553 27.1837 19.6364 26.3466H22.017C22.0436 26.7367 22.1553 27.0625 22.3523 27.3239C22.553 27.5814 22.8201 27.7765 23.1534 27.9091C23.4905 28.0379 23.8712 28.1023 24.2955 28.1023C24.7121 28.1023 25.0739 28.0417 25.3807 27.9205C25.6913 27.7992 25.9318 27.6307 26.1023 27.4148C26.2727 27.1989 26.358 26.9508 26.358 26.6705C26.358 26.4091 26.2803 26.1894 26.125 26.0114C25.9735 25.8333 25.75 25.6818 25.4545 25.5568C25.1629 25.4318 24.8049 25.3182 24.3807 25.2159L23.1136 24.8977C22.1326 24.6591 21.358 24.286 20.7898 23.7784C20.2216 23.2708 19.9394 22.5871 19.9432 21.7273C19.9394 21.0227 20.1269 20.4072 20.5057 19.8807C20.8883 19.3542 21.4129 18.9432 22.0795 18.6477C22.7462 18.3523 23.5038 18.2045 24.3523 18.2045C25.2159 18.2045 25.9697 18.3523 26.6136 18.6477C27.2614 18.9432 27.7652 19.3542 28.125 19.8807C28.4848 20.4072 28.6705 21.017 28.6818 21.7102H26.3239ZM32.1719 30L29.7969 21.2727H32.2457L33.598 27.1364H33.6776L35.0866 21.2727H37.4901L38.9219 27.1023H38.9957L40.3253 21.2727H42.7685L40.3991 30H37.8366L36.3366 24.5114H36.2287L34.7287 30H32.1719ZM46.5483 30.1648C45.9915 30.1648 45.4953 30.0682 45.0597 29.875C44.6241 29.678 44.2794 29.3883 44.0256 29.0057C43.7756 28.6193 43.6506 28.1383 43.6506 27.5625C43.6506 27.0777 43.7396 26.6705 43.9176 26.3409C44.0956 26.0114 44.3381 25.7462 44.6449 25.5455C44.9517 25.3447 45.3002 25.1932 45.6903 25.0909C46.0843 24.9886 46.4972 24.9167 46.929 24.875C47.4366 24.822 47.8456 24.7727 48.1562 24.7273C48.4669 24.678 48.6922 24.6061 48.8324 24.5114C48.9725 24.4167 49.0426 24.2765 49.0426 24.0909V24.0568C49.0426 23.697 48.929 23.4186 48.7017 23.2216C48.4782 23.0246 48.16 22.9261 47.7472 22.9261C47.3116 22.9261 46.965 23.0227 46.7074 23.2159C46.4498 23.4053 46.2794 23.6439 46.196 23.9318L43.9574 23.75C44.071 23.2197 44.2945 22.7614 44.6278 22.375C44.9612 21.9848 45.3911 21.6856 45.9176 21.4773C46.4479 21.2652 47.0616 21.1591 47.7585 21.1591C48.2434 21.1591 48.7074 21.2159 49.1506 21.3295C49.5975 21.4432 49.9934 21.6193 50.3381 21.858C50.6866 22.0966 50.9612 22.4034 51.1619 22.7784C51.3627 23.1496 51.4631 23.5947 51.4631 24.1136V30H49.1676V28.7898H49.0994C48.9593 29.0625 48.7718 29.303 48.5369 29.5114C48.3021 29.7159 48.0199 29.8769 47.6903 29.9943C47.3608 30.108 46.9801 30.1648 46.5483 30.1648ZM47.2415 28.4943C47.5975 28.4943 47.9119 28.4242 48.1847 28.2841C48.4574 28.1402 48.6714 27.947 48.8267 27.7045C48.982 27.4621 49.0597 27.1875 49.0597 26.8807V25.9545C48.9839 26.0038 48.8797 26.0492 48.7472 26.0909C48.6184 26.1288 48.4725 26.1648 48.3097 26.1989C48.1468 26.2292 47.9839 26.2576 47.821 26.2841C47.6581 26.3068 47.5104 26.3277 47.3778 26.3466C47.0938 26.3883 46.8456 26.4545 46.6335 26.5455C46.4214 26.6364 46.2566 26.7595 46.1392 26.9148C46.0218 27.0663 45.9631 27.2557 45.9631 27.483C45.9631 27.8125 46.0824 28.0644 46.321 28.2386C46.5634 28.4091 46.8703 28.4943 47.2415 28.4943ZM53.3409 33.2727V21.2727H55.7273V22.7386H55.8352C55.9413 22.5038 56.0947 22.2652 56.2955 22.0227C56.5 21.7765 56.7652 21.572 57.0909 21.4091C57.4205 21.2424 57.8295 21.1591 58.3182 21.1591C58.9545 21.1591 59.5417 21.3258 60.0795 21.6591C60.6174 21.9886 61.0473 22.4867 61.3693 23.1534C61.6913 23.8163 61.8523 24.6477 61.8523 25.6477C61.8523 26.6212 61.6951 27.4432 61.3807 28.1136C61.0701 28.7803 60.6458 29.286 60.108 29.6307C59.5739 29.9716 58.9754 30.142 58.3125 30.142C57.8428 30.142 57.4432 30.0644 57.1136 29.9091C56.7879 29.7538 56.5208 29.5587 56.3125 29.3239C56.1042 29.0852 55.9451 28.8447 55.8352 28.6023H55.7614V33.2727H53.3409ZM55.7102 25.6364C55.7102 26.1553 55.7822 26.608 55.9261 26.9943C56.0701 27.3807 56.2784 27.6818 56.5511 27.8977C56.8239 28.1098 57.1553 28.2159 57.5455 28.2159C57.9394 28.2159 58.2727 28.108 58.5455 27.892C58.8182 27.6723 59.0246 27.3693 59.1648 26.983C59.3087 26.5928 59.3807 26.1439 59.3807 25.6364C59.3807 25.1326 59.3106 24.6894 59.1705 24.3068C59.0303 23.9242 58.8239 23.625 58.5511 23.4091C58.2784 23.1932 57.9432 23.0852 57.5455 23.0852C57.1515 23.0852 56.8182 23.1894 56.5455 23.3977C56.2765 23.6061 56.0701 23.9015 55.9261 24.2841C55.7822 24.6667 55.7102 25.1174 55.7102 25.6364ZM69.5895 18.3636V30H67.169V18.3636H69.5895ZM75.4716 30.1705C74.589 30.1705 73.8258 29.983 73.1818 29.608C72.5417 29.2292 72.0473 28.7027 71.6989 28.0284C71.3504 27.3504 71.1761 26.5644 71.1761 25.6705C71.1761 24.7689 71.3504 23.9811 71.6989 23.3068C72.0473 22.6288 72.5417 22.1023 73.1818 21.7273C73.8258 21.3485 74.589 21.1591 75.4716 21.1591C76.3542 21.1591 77.1155 21.3485 77.7557 21.7273C78.3996 22.1023 78.8958 22.6288 79.2443 23.3068C79.5928 23.9811 79.767 24.7689 79.767 25.6705C79.767 26.5644 79.5928 27.3504 79.2443 28.0284C78.8958 28.7027 78.3996 29.2292 77.7557 29.608C77.1155 29.983 76.3542 30.1705 75.4716 30.1705ZM75.483 28.2955C75.8845 28.2955 76.2197 28.1818 76.4886 27.9545C76.7576 27.7235 76.9602 27.4091 77.0966 27.0114C77.2367 26.6136 77.3068 26.161 77.3068 25.6534C77.3068 25.1458 77.2367 24.6932 77.0966 24.2955C76.9602 23.8977 76.7576 23.5833 76.4886 23.3523C76.2197 23.1212 75.8845 23.0057 75.483 23.0057C75.0777 23.0057 74.7367 23.1212 74.4602 23.3523C74.1875 23.5833 73.9811 23.8977 73.8409 24.2955C73.7045 24.6932 73.6364 25.1458 73.6364 25.6534C73.6364 26.161 73.7045 26.6136 73.8409 27.0114C73.9811 27.4091 74.1875 27.7235 74.4602 27.9545C74.7367 28.1818 75.0777 28.2955 75.483 28.2955ZM85.2727 33.4545C84.4886 33.4545 83.8163 33.3466 83.2557 33.1307C82.6989 32.9186 82.2557 32.6288 81.9261 32.2614C81.5966 31.8939 81.3826 31.4811 81.2841 31.0227L83.5227 30.7216C83.5909 30.8958 83.6989 31.0587 83.8466 31.2102C83.9943 31.3617 84.1894 31.483 84.4318 31.5739C84.678 31.6686 84.9773 31.7159 85.3295 31.7159C85.8561 31.7159 86.2898 31.5871 86.6307 31.3295C86.9754 31.0758 87.1477 30.6496 87.1477 30.0511V28.4545H87.0455C86.9394 28.697 86.7803 28.9261 86.5682 29.142C86.3561 29.358 86.0833 29.5341 85.75 29.6705C85.4167 29.8068 85.0189 29.875 84.5568 29.875C83.9015 29.875 83.3049 29.7235 82.767 29.4205C82.233 29.1136 81.8068 28.6458 81.4886 28.017C81.1742 27.3845 81.017 26.5852 81.017 25.6193C81.017 24.6307 81.178 23.8049 81.5 23.142C81.822 22.4792 82.25 21.983 82.7841 21.6534C83.322 21.3239 83.911 21.1591 84.5511 21.1591C85.0398 21.1591 85.4489 21.2424 85.7784 21.4091C86.108 21.572 86.3731 21.7765 86.5739 22.0227C86.7784 22.2652 86.9356 22.5038 87.0455 22.7386H87.1364V21.2727H89.5398V30.0852C89.5398 30.8277 89.358 31.4489 88.9943 31.9489C88.6307 32.4489 88.1269 32.8239 87.483 33.0739C86.8428 33.3277 86.1061 33.4545 85.2727 33.4545ZM85.3239 28.0568C85.714 28.0568 86.0436 27.9602 86.3125 27.767C86.5852 27.5701 86.7936 27.2898 86.9375 26.9261C87.0852 26.5587 87.1591 26.1193 87.1591 25.608C87.1591 25.0966 87.0871 24.6534 86.9432 24.2784C86.7992 23.8996 86.5909 23.6061 86.3182 23.3977C86.0455 23.1894 85.714 23.0852 85.3239 23.0852C84.9261 23.0852 84.5909 23.1932 84.3182 23.4091C84.0455 23.6212 83.839 23.9167 83.6989 24.2955C83.5587 24.6742 83.4886 25.1117 83.4886 25.608C83.4886 26.1117 83.5587 26.5473 83.6989 26.9148C83.8428 27.2784 84.0492 27.5606 84.3182 27.7614C84.5909 27.9583 84.9261 28.0568 85.3239 28.0568ZM95.4091 30.1705C94.5265 30.1705 93.7633 29.983 93.1193 29.608C92.4792 29.2292 91.9848 28.7027 91.6364 28.0284C91.2879 27.3504 91.1136 26.5644 91.1136 25.6705C91.1136 24.7689 91.2879 23.9811 91.6364 23.3068C91.9848 22.6288 92.4792 22.1023 93.1193 21.7273C93.7633 21.3485 94.5265 21.1591 95.4091 21.1591C96.2917 21.1591 97.053 21.3485 97.6932 21.7273C98.3371 22.1023 98.8333 22.6288 99.1818 23.3068C99.5303 23.9811 99.7045 24.7689 99.7045 25.6705C99.7045 26.5644 99.5303 27.3504 99.1818 28.0284C98.8333 28.7027 98.3371 29.2292 97.6932 29.608C97.053 29.983 96.2917 30.1705 95.4091 30.1705ZM95.4205 28.2955C95.822 28.2955 96.1572 28.1818 96.4261 27.9545C96.6951 27.7235 96.8977 27.4091 97.0341 27.0114C97.1742 26.6136 97.2443 26.161 97.2443 25.6534C97.2443 25.1458 97.1742 24.6932 97.0341 24.2955C96.8977 23.8977 96.6951 23.5833 96.4261 23.3523C96.1572 23.1212 95.822 23.0057 95.4205 23.0057C95.0152 23.0057 94.6742 23.1212 94.3977 23.3523C94.125 23.5833 93.9186 23.8977 93.7784 24.2955C93.642 24.6932 93.5739 25.1458 93.5739 25.6534C93.5739 26.161 93.642 26.6136 93.7784 27.0114C93.9186 27.4091 94.125 27.7235 94.3977 27.9545C94.6742 28.1818 95.0152 28.2955 95.4205 28.2955Z" fill="white"/>
</svg>